# xmcd CD database file
#
# Track frame offsets:
#	150
#	15614
#	30228
#	48706
#	70385
#	87476
#	102464
#	126224
#	140940
#	154659
#	170018
#	186356
#	204301
#	224462
#	243582
#	259744
#	276656
#	301542
#	322069
#	339081
#
# Disc length: 4698 seconds
#
# Revision: 0
# Processed by: cddbd v1.5PL3 Copyright (c) Steve Scherf et al.
# Submitted via: CDex 1.40Release
#
DISCID=32125814
DTITLE=John Denver - The Complete Collection 40 Greatest Hits CD1
DYEAR=1900
DGENRE=Country
TTITLE0=Thank God I'm A Country Boy
TTITLE1=Take Me Home Country Roads
TTITLE2=Leaving On A Jet Plane
TTITLE3=Rocky Mountain High
TTITLE4=Let It Be
TTITLE5=Back Home Again
TTITLE6=Sunshine On My Shoulders
TTITLE7=City Of New Orleans
TTITLE8=Annie's Song
TTITLE9=Friends With You
TTITLE10=Calypso
TTITLE11=The Night They Drove Old Dixie
TTITLE12=I'd Rather Be A Cowboy (Lady's
TTITLE13=Mr. Bojangles
TTITLE14=I'm Sorry
TTITLE15=Fire And Rain
TTITLE16=Sweet Surrender
TTITLE17=Fly Away
TTITLE18=Like A Sad Song
TTITLE19=Please Daddy
EXTD=ID3G: 2
EXTT0=
EXTT1=
EXTT2=
EXTT3=
EXTT4=
EXTT5=
EXTT6=
EXTT7=
EXTT8=
EXTT9=
EXTT10=
EXTT11=
EXTT12=
EXTT13=
EXTT14=
EXTT15=
EXTT16=
EXTT17=
EXTT18=
EXTT19=
PLAYORDER=
